<svg width="32" height="32" viewBox="0 0 32 32" fill="none" xmlns="http://www.w3.org/2000/svg">
<path d="M7 1.5H20.5859C20.7185 1.50004 20.8457 1.55275 20.9395 1.64648L26.3535 7.06055C26.4472 7.15428 26.5 7.28151 26.5 7.41406V29C26.5 29.8284 25.8284 30.5 25 30.5H7C6.17157 30.5 5.5 29.8284 5.5 29V3C5.5 2.17157 6.17157 1.5 7 1.5Z" fill="white" stroke="#BBBBBB"/>
<path d="M20.5 2V6C20.5 6.82843 21.1716 7.5 22 7.5H26" stroke="#BBBBBB"/>
<path d="M16.4993 10.0208C17.5098 10.1052 18.4856 10.4446 19.3333 11.011C20.3199 11.6702 21.0891 12.6072 21.5432 13.7034C21.9973 14.7996 22.1164 16.0064 21.885 17.1702C21.6535 18.3341 21.0816 19.4033 20.2425 20.2425C19.4033 21.0816 18.3341 21.6535 17.1702 21.885C16.0064 22.1164 14.7996 21.9973 13.7034 21.5432C12.6072 21.0891 11.6702 20.3199 11.011 19.3333C10.4446 18.4856 10.1052 17.5098 10.0208 16.4993C9.99788 16.2242 10.2242 16.0003 10.5003 16.0003H15.5003C15.7762 16.0001 16.0001 15.7762 16.0003 15.5003V10.5003C16.0003 10.2242 16.2242 9.99788 16.4993 10.0208ZM13.5013 9.02469C13.7758 8.99742 14.0003 9.22429 14.0003 9.50027V13.5003C14.0001 13.7762 13.7762 14.0001 13.5003 14.0003H9.50027C9.22429 14.0003 8.99742 13.7758 9.02469 13.5013C9.07339 13.0159 9.1928 12.5385 9.38016 12.0862C9.63143 11.4796 9.99989 10.9284 10.4641 10.4641C10.9284 9.99989 11.4796 9.63143 12.0862 9.38016C12.5385 9.1928 13.0159 9.07339 13.5013 9.02469Z" fill="#FAC299"/>
<path d="M16 18C16 16.8954 16.8954 16 18 16H26C27.1046 16 28 16.8954 28 18V26C28 27.1046 27.1046 28 26 28H18C16.8954 28 16 27.1046 16 26V18Z" fill="#F36700"/>
<path d="M22.0606 18.4596C22.9739 18.4596 23.6473 18.6596 24.0806 19.0596C24.5206 19.4529 24.7406 20.0029 24.7406 20.7096C24.7406 21.0296 24.6939 21.3363 24.6006 21.6296C24.5073 21.9163 24.3506 22.1729 24.1306 22.3996C23.9173 22.6263 23.6339 22.8063 23.2806 22.9396C22.9339 23.0729 22.5039 23.1396 21.9906 23.1396H21.3906V25.5996H19.6906V18.4596H22.0606ZM22.0006 19.8496H21.3906V21.7496H21.8406C22.0739 21.7496 22.2773 21.7163 22.4506 21.6496C22.6306 21.5829 22.7706 21.4763 22.8706 21.3296C22.9706 21.1829 23.0206 20.9929 23.0206 20.7596C23.0206 20.4663 22.9373 20.2429 22.7706 20.0896C22.6039 19.9296 22.3473 19.8496 22.0006 19.8496Z" fill="white"/>
</svg>
